<svg id="Layer_1" data-name="Layer 1" xmlns="http://www.w3.org/2000/svg" viewBox="0 0 79.63 110.86"><defs><style>.cls-1,.cls-2,.cls-3{fill:none;stroke:#231f20;stroke-miterlimit:10;}.cls-1{stroke-width:3px;}.cls-2{stroke-width:2px;}</style></defs><title>logo</title><path class="cls-1" d="M34.72,78.16c-.3-3.62-7.59-41.46,3.22-37.14,8.9,3.57,1.4,12.47-4,15.28C50.48,44.89,53.61,78.48,34.72,78.16Z" transform="translate(-25.45 -21.75)"/><path class="cls-1" d="M51.2,64.9c10.6,0,9.33-12.45,3.62-8.44a8.09,8.09,0,0,0-.51,13.1c10.82,8.8,20.41-10.16,24.78-17.12" transform="translate(-25.45 -21.75)"/><path class="cls-1" d="M38.42,90.22c-10-14.68-13.72,14.89-10.13,22.35,7.28,15.13,17.57,7.11,17-6.91-.16-4.23-.39-13.29-3.95-16.68-6.58-6.25-6.06,1.7-4,1.88,11.1,1,21.78-11.84,27.78-20.62" transform="translate(-25.45 -21.75)"/><path class="cls-1" d="M51.09,132.61c0-6,.35-12.19,0-18.23-.42-6.58-4.31-13.92,1.36-18.75C57.48,91.32,64.28,94,64,101c-.3,6.57-7,8.87-12.48,10.16" transform="translate(-25.45 -21.75)"/><path class="cls-1" d="M69.26,97.11c10.61,0,9.34-12.45,3.62-8.44-4.07,2.85-7.15,11-1.93,14.41,4.67,3,8.68-.13,10.85-3.83" transform="translate(-25.45 -21.75)"/><path class="cls-1" d="M81.8,84.31a85.78,85.78,0,0,1,3.83,16.47" transform="translate(-25.45 -21.75)"/><path class="cls-1" d="M83.71,89.59c.55-3.56,3.36-8,7.34-4.89,2.63,2,1.31,9.38,2.24,12.55,4.73,2.91,7.64-1,10.72-4.15" transform="translate(-25.45 -21.75)"/><polyline class="cls-2" points="31.3 59.01 43.77 54.09 57.3 50.09"/><path class="cls-3" d="M84.53,60.73,86.36,62C78,67.23,80.52,79.09,90.82,79.3V82" transform="translate(-25.45 -21.75)"/><line class="cls-3" x1="61.61" y1="42.02" x2="60.9" y2="40.2"/><polyline class="cls-3" points="66.24 44.97 65.37 43.28 68.92 42.02"/><path class="cls-3" d="M90.82,68.52c-2.33,2-1.23,4.69-1,7.64" transform="translate(-25.45 -21.75)"/><path class="cls-3" d="M91.69,72.34c-2.86,2.25-7.49,1.32-10.41-.44,3.09-2.7,5.78-5.18,9.54-6.87V61.14" transform="translate(-25.45 -21.75)"/><line class="cls-3" x1="67.14" y1="54.4" x2="65.37" y2="57.55"/><path class="cls-2" d="M88.37,37.67c0-.13-11,17.65-11,17.65" transform="translate(-25.45 -21.75)"/><path class="cls-3" d="M81.27,27.43l2.41-.5C81.34,37.73,92.78,45,101,37l2.15,2.11" transform="translate(-25.45 -21.75)"/><line class="cls-3" x1="60.24" y1="6.04" x2="58.22" y2="5.17"/><polyline class="cls-3" points="66.2 4.66 64.18 4.03 65.96 0.21"/><path class="cls-3" d="M92.42,28.52c-.21,3.46,2.77,4.65,5.33,6.74" transform="translate(-25.45 -21.75)"/><path class="cls-3" d="M96.14,30.81c-.45,4-4.81,7-8.51,8,.27-4.57.4-8.66,2-13l-3.1-3.05" transform="translate(-25.45 -21.75)"/><line class="cls-3" x1="74.44" y1="11.33" x2="75.56" y2="15.21"/></svg>